HIERARCHY
ROOT hip
{
	OFFSET 0.000000 0.000000 0.000000 
	CHANNELS 6 Xposition Yposition Zposition Xrotation Zrotation Yrotation
	JOINT abdomen
	{
		OFFSET 0.000000 3.402643 0.000000 
		CHANNELS 3 Xrotation Zrotation Yrotation
		JOINT chest
		{
			OFFSET 0.000000 8.438565 -0.680529 
			CHANNELS 3 Xrotation Zrotation Yrotation
			JOINT neck
			{
				OFFSET 0.000000 10.207942 -0.272212 
				CHANNELS 3 Xrotation Zrotation Yrotation
				JOINT head
				{
					OFFSET 0.000000 3.130431 0.000000 
					CHANNELS 3 Xrotation Zrotation Yrotation
					End Site
					{
						OFFSET 0.000000 3.130435 0.000000 
					}
				}
			}
			JOINT lCollar
			{
				OFFSET 3.470700 6.669187 -0.816635 
				CHANNELS 3 Yrotation Zrotation Xrotation
				JOINT lShldr
				{
					OFFSET 3.198488 0.000000 0.000000 
					CHANNELS 3 Zrotation Yrotation Xrotation
					JOINT lForeArm
					{
						OFFSET 10.139888 0.000000 0.000000 
						CHANNELS 3 Yrotation Zrotation Xrotation
						JOINT lHand
						{
							OFFSET 8.370511 0.000000 0.000000 
							CHANNELS 3 Zrotation Yrotation Xrotation
							End Site
							{
								OFFSET 4.083176 0.000000 0.000000 
							}
						}
					}
				}
			}
			JOINT rCollar
			{
				OFFSET -3.470700 6.669187 -0.816635 
				CHANNELS 3 Yrotation Zrotation Xrotation
				JOINT rShldr
				{
					OFFSET -3.198488 0.000000 0.000000 
					CHANNELS 3 Zrotation Yrotation Xrotation
					JOINT rForeArm
					{
						OFFSET -10.139888 0.000000 0.000000 
						CHANNELS 3 Yrotation Zrotation Xrotation
						JOINT rHand
						{
							OFFSET -8.370511 0.000000 0.000000 
							CHANNELS 3 Zrotation Yrotation Xrotation
							End Site
							{
								OFFSET -4.083176 0.000000 0.000000 
							}
						}
					}
				}
			}
		}
	}
	JOINT lThigh
	{
		OFFSET 5.308129 -1.633274 1.361059 
		CHANNELS 3 Xrotation Zrotation Yrotation
		JOINT lShin
		{
			OFFSET -2.041588 -20.007561 0.000000 
			CHANNELS 3 Xrotation Zrotation Yrotation
			JOINT lFoot
			{
				OFFSET 0.000000 -19.190928 -1.224953 
				CHANNELS 3 Xrotation Yrotation Zrotation
				End Site
				{
					OFFSET 0.000000 -2.449906 4.627600 
				}
			}
		}
	}
	JOINT rThigh
	{
		OFFSET -5.308129 -1.633274 1.361059 
		CHANNELS 3 Xrotation Zrotation Yrotation
		JOINT rShin
		{
			OFFSET 2.041588 -20.007561 0.000000 
			CHANNELS 3 Xrotation Zrotation Yrotation
			JOINT rFoot
			{
				OFFSET 0.000000 -19.190928 -1.224953 
				CHANNELS 3 Xrotation Yrotation Zrotation
				End Site
				{
					OFFSET 0.000000 -2.449906 4.627600 
				}
			}
		}
	}
}
MOTION
Frames: 8
Frame Time: 0.033333
0.430242 53.183952 0.351839 2.812500 3.496094 20.039661 30.038328 -14.323550 -7.140433 -10.898438 12.822267 7.568359 51.063168 8.107644 2.471410 -62.939457 -8.515624 -11.142578 2.000000 -2.000000 0.000000 -98.681641 22.128904 -10.371094 -56.207127 -1.601894 -2.191533 2.975407 61.552490 4.180613 -2.000000 2.000000 0.000000 85.615234 -13.242188 6.494141 50.898891 1.707515 -1.990091 4.915482 -52.877842 -7.674312 0.557506 12.327351 -5.936419 17.000116 -4.557269 -2.355446 2.042823 9.384144 -7.682530 4.760526 1.804330 -24.940180 -3.462208 5.422489 -0.139324 1.497256 -16.009819 -0.983769 
0.738414 53.191830 1.113907 1.933594 4.199219 19.462891 30.141611 -13.956887 -6.724121 -10.703125 12.969140 7.843684 51.063168 8.107644 2.471410 -61.416016 -9.218749 -10.917970 2.000000 -2.000000 0.000000 -100.839844 22.148439 -11.187722 -56.195770 -1.422434 -2.133552 3.549272 61.495445 3.956867 -2.000000 2.000000 0.000000 85.019531 -14.531251 6.484375 51.074940 1.708084 -1.999836 3.764794 -52.880806 -7.121041 -0.740601 10.970053 -7.109123 15.615607 -5.007134 -1.813516 0.442936 9.104107 -7.225492 6.849831 1.491682 -25.601400 -3.441490 5.400929 -0.136630 1.137361 -14.768836 -0.810514 
0.960143 53.254852 1.982981 1.044922 4.726563 18.731274 30.234550 -13.579972 -6.335379 -10.517578 12.958985 7.883049 51.063168 8.107644 2.471410 -60.048832 -9.892577 -10.537112 2.000000 -2.000000 0.000000 -102.392578 22.675781 -12.177734 -56.020180 -1.471748 -2.140454 3.284313 61.856018 3.726765 -2.000000 2.000000 0.000000 84.355469 -15.292968 6.630858 51.074940 1.708084 -1.999836 3.039660 -52.642906 -7.104925 -1.961414 9.702405 -7.936627 14.204990 -5.066945 -1.663936 -0.759002 9.102782 -7.232284 7.870157 0.946524 -25.482275 -2.124003 5.331904 -0.314582 0.791587 -13.766495 -0.946490 
1.140242 53.310005 2.422742 0.351563 5.244135 18.145443 30.515728 -13.332816 -6.016517 -10.332031 13.095703 8.154297 51.063168 8.107644 2.471410 -59.062504 -10.703123 -10.273439 2.000000 -2.000000 0.000000 -103.535156 23.554688 -12.232424 -55.842258 -1.291149 -2.062982 0.348674 62.839333 1.485009 -2.000000 2.000000 0.000000 84.248047 -15.498048 6.120438 51.080826 1.807356 -1.856853 3.426131 -52.664242 -7.235209 -2.662077 8.301865 -8.178691 12.616674 -5.097145 -1.515280 -1.390786 8.759125 -7.152825 8.536286 0.291345 -24.896437 -0.005298 5.336466 0.196265 0.265974 -14.706304 -0.409887 
1.421218 53.412426 2.782125 -0.361328 5.605469 17.519531 30.589573 -13.049143 -5.435988 -10.302735 13.261719 8.388672 51.063168 8.107644 2.471410 -58.574219 -11.103515 -9.970705 2.000000 -2.000000 0.000000 -104.287109 24.648438 -12.675782 -55.503170 -1.619689 -2.161159 -1.792827 63.741940 1.308732 -2.000000 2.000000 0.000000 84.521484 -15.068358 5.388088 50.900154 1.886410 -2.038358 4.684786 -52.700569 -7.581355 -3.247279 7.267572 -8.364264 10.690314 -5.134791 -1.348840 -0.614425 8.752678 -7.060852 8.593463 -0.635347 -24.075308 2.824717 5.335203 0.269743 -0.277516 -14.830183 -0.016591 
1.846064 53.522717 3.093452 -0.908203 5.791016 16.768566 30.684690 -12.682418 -5.020230 -10.107422 13.417969 8.498360 51.063168 8.107644 2.471410 -58.447266 -11.640624 -9.580081 2.000000 -2.000000 0.000000 -104.365234 25.507813 -11.894531 -55.151112 -1.599054 -2.142805 -4.924422 64.705101 -0.028071 -2.000000 2.000000 0.000000 84.492188 -14.892577 5.000000 50.904762 1.816535 -1.846539 5.649663 -53.029449 -8.158915 -3.336829 6.362888 -7.650401 8.039897 -5.141675 -1.665481 1.660313 8.476959 -7.750818 8.439855 -1.415640 -23.646435 5.807215 5.255326 0.704104 -0.302928 -14.408516 0.635485 
2.399922 53.617245 3.362068 -1.240234 5.791016 16.045910 30.779606 -12.306539 -4.599125 -9.912108 13.574220 8.771822 51.063168 8.107644 2.471410 -58.320316 -12.011718 -9.208984 2.000000 -2.000000 0.000000 -104.628906 26.425779 -10.634767 -55.327370 -1.629437 -2.160591 -4.788635 65.573433 1.022113 -2.000000 2.000000 0.000000 85.195313 -14.882812 4.499446 51.074940 1.708084 -1.999836 5.580006 -53.360992 -8.620229 -3.012422 5.666361 -7.452709 5.230176 -5.375482 -1.438983 4.912908 8.231621 -7.730021 7.754977 -2.625478 -22.536798 8.815766 5.200130 0.933871 0.080014 -14.219848 1.584679 
3.031901 53.680279 3.610743 -1.425781 5.791016 15.147470 30.885891 -11.943146 -4.174625 -9.726563 13.720703 9.045285 51.063168 8.107644 2.471410 -58.349609 -12.363280 -8.818360 2.000000 -2.000000 0.000000 -103.994141 27.314453 -8.403722 -55.490658 -1.320397 -2.061276 -4.386363 65.893097 2.647139 -2.000000 2.000000 0.000000 85.947266 -15.000000 4.343175 51.250732 1.698335 -2.000403 4.817402 -53.824524 -8.939035 -2.957176 4.958664 -7.289660 2.196232 -5.424627 -0.664797 8.837106 8.359264 -8.002071 7.189449 -3.522311 -21.761703 11.624928 5.128250 1.192568 0.574978 -13.865476 2.477216 
